<svg xmlns="http://www.w3.org/2000/svg" viewBox="0 0 150 394.78">
<path fill="#95bf47" d="M297.7 74.16a3.75 3.75 0 00-3.38-3.16c-1.4-.11-28.82-.53-28.82-.53S242.57 48.22 240.31 46s-6.69-1.57-8.41-1.07l-11.52 3.57a80.32 80.32 0 00-5.51-13.55c-8.17-15.57-20.12-23.82-34.56-23.84h-.05c-1 0-2 .1-3 .19-.42-.51-.85-1-1.31-1.51-6.28-6.73-14.36-10-24-9.72C133.26.55 114.69 14 99.62 38 89 54.8 81 76 78.67 92.33l-36.74 11.38c-10.81 3.39-11.15 3.73-12.57 13.92C28.29 125.34 0 344.13 0 344.13l237.12 41 102.77-25.54S298 76.11 297.7 74.16zm-89.2-22l-18.4 5.69c-.14-9.44-1.26-22.59-5.67-33.95 14.16 2.66 21.13 18.67 24.07 28.23zm-30.8 9.53l-39.59 12.23c3.83-14.65 11.08-29.24 20-38.79a39.84 39.84 0 0113.44-9.79c5.15 10.76 6.27 26.02 6.15 36.32zm-25.42-49.26a19.09 19.09 0 0111.22 2.94A54.13 54.13 0 00149 26.66c-11.85 12.71-20.93 32.45-24.55 51.49L92 88.22c6.36-29.98 31.48-74.96 60.28-75.79z"></path>
<path fill="#5e8e3e" d="M294.32 71c-1.4-.11-28.82-.53-28.82-.53S242.57 48.22 240.31 46a5.62 5.62 0 00-3.18-1.47v340.6l102.76-25.54S298 76.11 297.7 74.16a3.75 3.75 0 00-3.38-3.16z"></path>
<path fill="#fff" d="M180.17 123.87l-11.94 44.65a67.63 67.63 0 00-29.1-5.07c-23.13 1.46-23.39 16.06-23.13 19.72 1.26 20 53.8 24.33 56.75 71.11 2.33 36.8-19.52 62-51 64-37.77 2.38-58.56-19.9-58.56-19.9l8-34s20.91 15.7 37.66 14.62c10.94-.69 14.86-9.59 14.46-15.88-1.65-26-44.43-24.52-47.13-67.32-2.27-36 21.38-72.52 73.58-75.82 20.11-1.25 30.41 3.89 30.41 3.89z"></path>
</svg>