<svg xmlns="http://www.w3.org/2000/svg" viewBox="0 0 1400 394.78">
<path fill="#95bf47" d="M297.7 74.16a3.75 3.75 0 00-3.38-3.16c-1.4-.11-28.82-.53-28.82-.53S242.57 48.22 240.31 46s-6.69-1.57-8.41-1.07l-11.52 3.57a80.32 80.32 0 00-5.51-13.55c-8.17-15.57-20.12-23.82-34.56-23.84h-.05c-1 0-2 .1-3 .19-.42-.51-.85-1-1.31-1.51-6.28-6.73-14.36-10-24-9.72C133.26.55 114.69 14 99.62 38 89 54.8 81 76 78.67 92.33l-36.74 11.38c-10.81 3.39-11.15 3.73-12.57 13.92C28.29 125.34 0 344.13 0 344.13l237.12 41 102.77-25.54S298 76.11 297.7 74.16zm-89.2-22l-18.4 5.69c-.14-9.44-1.26-22.59-5.67-33.95 14.16 2.66 21.13 18.67 24.07 28.23zm-30.8 9.53l-39.59 12.23c3.83-14.65 11.08-29.24 20-38.79a39.84 39.84 0 0113.44-9.79c5.15 10.76 6.27 26.02 6.15 36.32zm-25.42-49.26a19.09 19.09 0 0111.22 2.94A54.13 54.13 0 00149 26.66c-11.85 12.71-20.93 32.45-24.55 51.49L92 88.22c6.36-29.98 31.48-74.96 60.28-75.79z"></path>
<path fill="#5e8e3e" d="M294.32 71c-1.4-.11-28.82-.53-28.82-.53S242.57 48.22 240.31 46a5.62 5.62 0 00-3.18-1.47v340.6l102.76-25.54S298 76.11 297.7 74.16a3.75 3.75 0 00-3.38-3.16z"></path>
<path fill="#fff" d="M180.17 123.87l-11.94 44.65a67.63 67.63 0 00-29.1-5.07c-23.13 1.46-23.39 16.06-23.13 19.72 1.26 20 53.8 24.33 56.75 71.11 2.33 36.8-19.52 62-51 64-37.77 2.38-58.56-19.9-58.56-19.9l8-34s20.91 15.7 37.66 14.62c10.94-.69 14.86-9.59 14.46-15.88-1.65-26-44.43-24.52-47.13-67.32-2.27-36 21.38-72.52 73.58-75.82 20.11-1.25 30.41 3.89 30.41 3.89z"></path>
<path fill="#fff" d="M479.13 219.15c-11.91-6.46-18-11.91-18-19.4 0-9.53 8.51-15.65 21.79-15.65 15.46 0 29.27 6.46 29.27 6.46L523 157.21s-10-7.83-39.48-7.83c-41 0-69.44 23.48-69.44 56.5 0 18.72 13.28 33 31 43.22 14.29 8.17 19.4 14 19.4 22.47 0 8.85-7.15 16-20.42 16-19.78 0-38.46-10.21-38.46-10.21L394 310.71s17.26 11.57 46.29 11.57c42.21 0 72.5-20.76 72.5-58.2.04-20.08-15.28-34.38-33.66-44.93zM647.27 149c-20.76 0-37.1 9.87-49.69 24.84l-.69-.33 18-94.28H568l-45.61 240h47l15.65-82c6.13-31 22.13-50 37.1-50 10.55 0 14.64 7.15 14.64 17.36a106.73 106.73 0 01-2.05 20.76L617 319.22h47l18.37-97a175.74 175.74 0 003.41-30.64C685.73 165 671.77 149 647.27 149zm144.65 0c-56.5 0-93.92 51.09-93.92 107.93 0 36.42 22.46 65.69 64.67 65.69 55.48 0 92.91-49.69 92.91-107.89C855.56 181 835.82 149 791.92 149zm-23.14 137.5c-16 0-22.81-13.61-22.81-30.63 0-26.89 14-70.79 39.48-70.79 16.68 0 22.12 14.29 22.12 28.25 0 28.97-13.95 73.21-38.79 73.21zM975.71 149C944 149 926 177 926 177h-.68l2.72-25.19h-41.5c-2 17-5.79 42.89-9.53 62.29l-32.67 171.82h47l12.93-69.43h1s9.64 6.13 27.57 6.13c55.14 0 91.21-56.5 91.21-113.68-.05-31.65-13.96-59.94-48.34-59.94zm-44.92 138.22a29.82 29.82 0 01-19.4-6.8l7.83-43.91c5.44-29.27 20.76-48.67 37.09-48.67 14.3 0 18.72 13.27 18.72 25.87C975 244 957 287.22 930.79 287.22zm160.3-205.57a26.8 26.8 0 00-26.88 27.23c0 14 8.85 23.48 22.12 23.48h.68c14.64 0 27.23-9.87 27.57-27.23 0-13.61-9.19-23.48-23.49-23.48zm-65.68 237.57h46.97l31.99-166.44h-47.31l-31.65 166.44m198.42-166.78h-32.67l1.7-7.82c2.72-16 12.25-30.3 27.91-30.3a48.77 48.77 0 0115 2.39l9.16-36.71s-8.17-4.09-25.53-4.09c-16.67 0-33.35 4.77-45.94 15.66-16 13.61-23.49 33.35-27.23 53.1l-1.36 7.82h-21.78l-6.81 35.4h21.78l-24.85 131.38h47L1185 187.84h32.33zm113 .34s-29.36 74-42.55 114.36h-.67c-.91-13-11.58-114.36-11.58-114.36h-49.35l28.25 152.82c.68 3.4.34 5.45-1 7.83-5.45 10.55-14.64 20.76-25.53 28.25-8.85 6.47-18.72 10.55-26.54 13.27l12.93 39.83c9.53-2 29.27-9.88 46-25.53 21.44-20.08 41.18-51.06 61.6-93.26l57.52-123.21z"></path>
</svg>